<svg id="Capa_1" data-name="Capa 1" xmlns="http://www.w3.org/2000/svg" viewBox="0 0 512 512"><defs><style>.cls-1{fill:#1d1d1b;}</style></defs><path class="cls-1" d="M462,.17H166.22a50,50,0,0,0-50,50V226.7C50.09,239.63,0,298,0,367.93c0,79.35,64.56,143.9,143.91,143.9H462a50,50,0,0,0,50-50V50.13A50,50,0,0,0,462,.17ZM20,367.93A123.92,123.92,0,1,1,143.91,491.85,124.06,124.06,0,0,1,20,367.93ZM184.21,222V198a10,10,0,0,1,10-10h24a10,10,0,0,1,10,10v24a10,10,0,0,1-10,10h-24A10,10,0,0,1,184.21,222ZM492,461.87a30,30,0,0,1-30,30H217a144.94,144.94,0,0,0,55.17-58.69v4.72a30,30,0,0,0,30,30h24a30,30,0,0,0,30-30v-24a30,30,0,0,0-30-30h-24a29.76,29.76,0,0,0-15.79,4.51,144.43,144.43,0,0,0,1.46-20.5q0-6-.5-11.93a29.82,29.82,0,0,0,14.83,3.93h24a30,30,0,0,0,30-30V306a30,30,0,0,0-30-30h-24a30,30,0,0,0-29.84,27,145,145,0,0,0-45.12-52.37,30,30,0,0,0,21-28.6V198a30,30,0,0,0-30-30h-24a30,30,0,0,0-30,30v24a30.51,30.51,0,0,0,.2,3.47A144.7,144.7,0,0,0,143.91,224q-3.85,0-7.67.21V50.13a30,30,0,0,1,30-30H462a30,30,0,0,1,30,30Zm-199.87-24v-24a10,10,0,0,1,10-10h24a10,10,0,0,1,10,10v24a10,10,0,0,1-10,10h-24A10,10,0,0,1,292.14,437.88Zm0-107.93V306a10,10,0,0,1,10-10h24a10,10,0,0,1,10,10v24a10,10,0,0,1-10,10h-24A10,10,0,0,1,292.14,330Z"/><path class="cls-1" d="M454,44.14H359.1a10,10,0,0,0,0,20H444v60H184.21v-60h85a10,10,0,0,0,0-20H174.22a10,10,0,0,0-10,10v80a10,10,0,0,0,10,10H454a10,10,0,0,0,10-10v-80A10,10,0,0,0,454,44.14Z"/><path class="cls-1" d="M326.12,168.06h-24a30,30,0,0,0-30,30v24a30,30,0,0,0,30,30h24a30,30,0,0,0,30-30V198A30,30,0,0,0,326.12,168.06Zm10,54a10,10,0,0,1-10,10h-24a10,10,0,0,1-10-10V198a10,10,0,0,1,10-10h24a10,10,0,0,1,10,10Z"/><path class="cls-1" d="M434.05,168.06h-24a30,30,0,0,0-30,30v24a30,30,0,0,0,30,30h24a30,30,0,0,0,30-30V198A30,30,0,0,0,434.05,168.06Zm10,54a10,10,0,0,1-10,10h-24a10,10,0,0,1-10-10V198a10,10,0,0,1,10-10h24a10,10,0,0,1,10,10Z"/><path class="cls-1" d="M434.05,276h-24a30,30,0,0,0-30,30V437.88a30,30,0,0,0,30,30h24a30,30,0,0,0,30-30V306A30,30,0,0,0,434.05,276Zm10,161.89a10,10,0,0,1-10,10h-24a10,10,0,0,1-10-10V306a10,10,0,0,1,10-10h24a10,10,0,0,1,10,10Z"/><path class="cls-1" d="M314.13,64.13a10,10,0,1,0-7.07-2.93A10,10,0,0,0,314.13,64.13Z"/><path class="cls-1" d="M176.49,302.16a10,10,0,0,0-13.35,4.62L108.15,420a10,10,0,1,0,18,8.73l55-113.23a10,10,0,0,0-4.62-13.35Z"/><path class="cls-1" d="M118.65,296.55a32,32,0,1,0,0,45.23A32,32,0,0,0,118.65,296.55Zm-14.14,31.1a12,12,0,1,1,0-17A12,12,0,0,1,104.51,327.65Z"/><path class="cls-1" d="M170.94,394.08a32,32,0,1,0,45.24,0A32,32,0,0,0,170.94,394.08Zm31.1,31.1a12,12,0,1,1,0-17,12,12,0,0,1,0,17Z"/></svg>