<?xml version="1.0" standalone="no"?>
<!DOCTYPE svg PUBLIC "-//W3C//DTD SVG 20010904//EN"
 "http://www.w3.org/TR/2001/REC-SVG-20010904/DTD/svg10.dtd">
<svg version="1.0" xmlns="http://www.w3.org/2000/svg"
 width="185.000000pt" height="75.000000pt" viewBox="0 0 185.000000 75.000000"
 preserveAspectRatio="xMidYMid meet">
<metadata>
Created by potrace 1.16, written by Peter Selinger 2001-2019
</metadata>
<g transform="translate(0.000000,75.000000) scale(0.100000,-0.100000)"
fill="#000000" stroke="none">
<path d="M690 636 c0 -53 -2 -96 -5 -96 -2 0 -43 23 -91 51 l-86 51 -236 -136
c-131 -74 -245 -141 -255 -148 -13 -10 -18 -24 -15 -49 l3 -36 125 72 c105 61
203 118 351 204 25 14 31 12 165 -64 77 -43 142 -80 147 -82 4 -2 7 -2 7 1 0
2 -41 28 -90 57 -59 33 -89 57 -86 65 3 7 1 16 -4 19 -5 3 -10 -3 -12 -12 -3
-11 -6 -5 -9 14 l-6 33 44 -26 c24 -14 48 -22 53 -19 6 3 10 44 10 91 0 46 3
84 6 84 3 0 14 -5 25 -10 17 -10 19 -22 19 -110 0 -93 1 -100 23 -110 20 -10
20 -10 5 3 -15 12 -18 31 -18 114 0 109 5 98 -62 131 -5 2 -8 -39 -8 -92z"/>
<path d="M282 242 c3 -128 5 -141 28 -174 33 -49 77 -68 153 -68 46 0 73 6
102 23 64 36 75 69 75 225 l0 132 -55 0 -55 0 0 -118 c0 -131 -6 -148 -57
-158 -26 -5 -37 -1 -57 19 -25 25 -26 31 -26 142 l0 115 -56 0 -56 0 4 -138z"/>
<path d="M690 115 l0 -115 41 0 41 0 -4 51 -3 51 45 -51 c37 -42 51 -51 78
-51 l32 0 0 115 0 115 -39 0 -40 0 -3 -51 -3 -51 -40 50 c-33 43 -46 51 -72
52 l-33 0 0 -115z"/>
<path d="M930 218 c1 -7 20 -58 44 -113 l43 -100 38 0 39 0 48 110 47 110 1
-112 0 -113 95 0 c95 0 95 0 95 25 0 24 -3 25 -60 25 -47 0 -60 3 -60 15 0 11
12 15 50 15 49 0 50 1 50 30 0 29 -1 30 -50 30 -38 0 -50 4 -50 15 0 12 13 15
60 15 l60 0 0 30 0 30 -132 0 -133 0 -29 -71 -29 -71 -26 69 c-26 66 -28 68
-64 71 -25 2 -37 -1 -37 -10z"/>
<path d="M1400 115 l0 -115 40 0 40 0 0 51 0 52 41 -52 c35 -43 46 -51 75 -51
l34 0 0 115 0 115 -41 0 -41 0 4 -55 c1 -30 3 -55 2 -55 -1 0 -21 25 -45 55
-37 46 -49 55 -76 55 l-33 0 0 -115z"/>
<path d="M1640 200 c0 -28 3 -30 35 -30 l35 0 0 -85 0 -85 35 0 35 0 0 85 0
85 35 0 c32 0 35 2 35 30 l0 30 -105 0 -105 0 0 -30z"/>
</g>
</svg>
